<?xml version="1.0" encoding="UTF-8"?>
<svg version="1.1" xmlns="http://www.w3.org/2000/svg" width="1108" height="304">
<path d="M0 0 C0 25.08 0 50.16 0 76 C-8.415 76.99 -8.415 76.99 -17 78 C-37.51920272 83.74537676 -53.67887321 94.78286939 -65 113 C-67.355426 117.56105517 -69.27145708 122.16894414 -71 127 C-71.3403125 127.9178125 -71.680625 128.835625 -72.03125 129.78125 C-77.84276114 148.50723033 -74.12959932 169.06638324 -65.4050293 186.14624023 C-55.77237147 203.82237331 -40.06527245 215.54321829 -20.8125 221.25 C-1.02514064 226.7678465 19.15147599 223.97708468 37 214 C41.27676026 211.34266498 45.17354994 208.26719966 49 205 C49.65226563 204.45988281 50.30453125 203.91976562 50.9765625 203.36328125 C66.23292329 189.5350273 71.20997677 169.53016263 74 150 C99.08 150 124.16 150 150 150 C150 165.38119973 150 165.38119973 148.875 172.5625 C148.74448242 173.40329102 148.61396484 174.24408203 148.47949219 175.11035156 C143.37422144 205.5721777 129.16679322 232.64169855 108 255 C107.18015625 255.88429687 106.3603125 256.76859375 105.515625 257.6796875 C78.94361445 285.43092929 40.48757179 300.42629381 2.40698242 301.3515625 C-41.17514098 301.70294268 -79.07381504 285.14103499 -110 255 C-134.27174167 230.80849549 -150.85725423 194.60528843 -151.23828125 160.1796875 C-151.25297203 159.08086243 -151.25297203 159.08086243 -151.26795959 157.95983887 C-151.43794281 141.94693349 -151.4029327 126.53089276 -147 111 C-146.78569336 110.2260791 -146.57138672 109.4521582 -146.35058594 108.65478516 C-143.15950984 97.45814914 -138.55053398 87.20851978 -133 77 C-132.16855469 75.42992188 -132.16855469 75.42992188 -131.3203125 73.828125 C-126.73435516 65.5339055 -121.01715463 58.28245502 -115 51 C-114.34644531 50.20207031 -113.69289062 49.40414062 -113.01953125 48.58203125 C-109.05915443 43.89664265 -104.7372556 39.8885616 -100 36 C-99.00226563 35.1646875 -98.00453125 34.329375 -96.9765625 33.46875 C-77.51583123 17.46339615 -55.51914771 7.47799357 -31 2 C-29.42025391 1.63068359 -29.42025391 1.63068359 -27.80859375 1.25390625 C-18.3765949 -0.64823538 -9.97377682 0 0 0 Z " fill="#FEFEFE" transform="translate(151,0)"/>
<path d="M0 0 C11.22 0 22.44 0 34 0 C36.40662665 6.01656662 38.69415344 11.81234256 40.56542969 17.97241211 C40.79034592 18.70057129 41.01526215 19.42873047 41.24699402 20.17895508 C41.97619698 22.54380393 42.69927047 24.91047114 43.421875 27.27734375 C43.93157318 28.93745996 44.44152629 30.59749792 44.95172119 32.25746155 C46.01338782 35.71515223 47.07200517 39.1737573 48.12841797 42.63305664 C49.48334253 47.06897386 50.84593369 51.50249298 52.21076584 55.93537045 C53.26210874 59.35300845 54.30944989 62.77186245 55.35556793 66.19110298 C55.85671103 67.82737554 56.35909996 69.46326707 56.86275482 71.09876823 C57.56329421 73.37573996 58.25843721 75.65428983 58.95214844 77.93334961 C59.16093124 78.60815872 59.36971405 79.28296783 59.58482361 79.97822571 C60.43065636 82.77477086 61 85.05779392 61 88 C61.66 88 62.32 88 63 88 C63.26248535 86.71150146 63.5249707 85.42300293 63.79541016 84.09545898 C64.91586757 79.06786445 66.5162472 74.30864063 68.2734375 69.47265625 C68.59365875 68.57749298 68.91388 67.68232971 69.24380493 66.76004028 C70.28265902 63.85908394 71.32882675 60.96082386 72.375 58.0625 C73.09434615 56.05726129 73.81309094 54.05180674 74.53125 52.04614258 C75.62212959 48.99996732 76.71344444 45.95395517 77.80682373 42.90867615 C81.23967079 33.34726683 84.62547376 23.76961845 88 14.1875 C89.65 9.505625 91.3 4.82375 93 0 C104.88 0 116.76 0 129 0 C133.59528189 14.93466615 133.59528189 14.93466615 135.19824219 21.26879883 C135.47709511 22.35429268 135.47709511 22.35429268 135.76158142 23.4617157 C136.35963636 25.79274202 136.9533164 28.12485639 137.546875 30.45703125 C137.96686878 32.0976196 138.38714161 33.73813653 138.80767822 35.37858582 C139.90200111 39.65042867 140.99258658 43.92321665 142.08233643 48.19622803 C143.19972448 52.57476709 144.32072749 56.95238039 145.44140625 61.33007812 C147.63109831 69.88582817 149.81683404 78.44258237 152 87 C158.1981812 71.87022205 164.35431973 56.72829009 170.28125 41.48974609 C171.2627293 38.96728492 172.24837346 36.44647772 173.234375 33.92578125 C177.62864054 22.66618705 181.8504342 11.35218003 186 0 C197.22 0 208.44 0 220 0 C219.30108164 3.49459178 218.79833538 5.79615607 217.41210938 8.89599609 C217.08599167 9.63217667 216.75987396 10.36835724 216.4238739 11.12684631 C216.06743301 11.91772141 215.71099213 12.7085965 215.34375 13.5234375 C214.96978592 14.36438461 214.59582184 15.20533173 214.21052551 16.07176208 C213.4016088 17.88951899 212.59043363 19.70627218 211.7772522 21.52212524 C210.04033455 25.40171028 208.31534462 29.28655924 206.5896759 33.17115784 C205.6999075 35.17387031 204.80959238 37.17633998 203.91874695 39.17857361 C199.67996121 48.70723143 195.48173646 58.25322126 191.3125 67.8125 C190.97090851 68.5953537 190.62931702 69.3782074 190.27737427 70.18478394 C182.34405632 88.38367327 174.67006069 106.68859385 167 125 C155.12 125 143.24 125 131 125 C126.60492327 109.58689069 122.67251929 94.06544622 118.78686523 78.51806641 C117.86256877 74.82067435 116.93171916 71.12496427 115.99936199 67.42959785 C115.27640446 64.55996198 114.55770654 61.68927204 113.8402195 58.81826401 C113.49845332 57.45355157 113.15516943 56.08921825 112.81030846 54.72528458 C112.33220952 52.83246406 111.86065542 50.93799404 111.3894043 49.04345703 C110.98566841 47.43278854 110.98566841 47.43278854 110.57377625 45.7895813 C110 43 110 43 110 39 C109.34 39 108.68 39 108 39 C107.88406494 39.6798999 107.76812988 40.3597998 107.64868164 41.06030273 C106.88959525 44.50033254 105.79037414 47.71117909 104.62109375 51.03515625 C104.25513092 52.07848114 104.25513092 52.07848114 103.8817749 53.1428833 C103.07071965 55.45074504 102.25432671 57.7566752 101.4375 60.0625 C100.86690852 61.6805704 100.29635259 63.29865333 99.72583008 64.91674805 C92.63017197 84.99708455 85.31197014 104.9976786 78 125 C66.45 125 54.9 125 43 125 C39.62669623 117.12895787 39.62669623 117.12895787 38.67578125 114.13085938 C38.45631332 113.44591904 38.2368454 112.7609787 38.01072693 112.05528259 C37.78031204 111.32547684 37.54989716 110.59567108 37.3125 109.84375 C36.78290182 108.19140159 36.25302076 106.53914384 35.72290039 104.88696289 C35.30356735 103.57479294 35.30356735 103.57479294 34.87576294 102.2361145 C28.85465976 83.42459944 22.53057853 64.72466343 16.0625 46.0625 C15.46248169 44.3307251 15.46248169 44.3307251 14.8503418 42.56396484 C9.92797537 28.3662702 4.96970133 14.18118501 0 0 Z " fill="#FFFFFF" transform="translate(302,150)"/>
<path d="M0 0 C0 25.08 0 50.16 0 76 C-8.415 76.99 -8.415 76.99 -17 78 C-37.51920272 83.74537676 -53.67887321 94.78286939 -65 113 C-71.26045995 125.12277661 -73.76966669 136.46633364 -75 150 C-100.08 150 -125.16 150 -151 150 C-151 129.0565619 -151 129.0565619 -149.375 121.5 C-149.19678711 120.62964111 -149.01857422 119.75928223 -148.83496094 118.86254883 C-145.62616434 103.92481339 -140.28178964 90.39263823 -133 77 C-132.16855469 75.42992188 -132.16855469 75.42992188 -131.3203125 73.828125 C-126.73435516 65.5339055 -121.01715463 58.28245502 -115 51 C-114.34644531 50.20207031 -113.69289062 49.40414062 -113.01953125 48.58203125 C-109.05915443 43.89664265 -104.7372556 39.8885616 -100 36 C-99.00226563 35.1646875 -98.00453125 34.329375 -96.9765625 33.46875 C-77.51583123 17.46339615 -55.51914771 7.47799357 -31 2 C-29.42025391 1.63068359 -29.42025391 1.63068359 -27.80859375 1.25390625 C-18.3765949 -0.64823538 -9.97377682 0 0 0 Z " fill="#5CE1E6" transform="translate(151,0)"/>
<path d="M0 0 C11.158125 -0.061875 22.31625 -0.12375 33.8125 -0.1875 C37.31464111 -0.21481201 40.81678223 -0.24212402 44.42504883 -0.27026367 C48.75524902 -0.28381348 48.75524902 -0.28381348 50.79277039 -0.28633118 C52.19314956 -0.29088926 53.59351816 -0.30133745 54.99382019 -0.31672668 C68.24007869 -0.45481949 81.50571069 0.79716721 91.6875 10.125 C99.97398439 18.88553956 101.46866274 28.91074428 101.2734375 40.46484375 C100.92512695 48.86395615 97.77764981 55.06676752 92.08203125 61.171875 C88.42312052 64.38457711 84.28596175 66.72335231 80 69 C81.97618587 75.18890379 84.2246506 81.20347632 86.72265625 87.19921875 C87.06880478 88.03789993 87.41495331 88.87658112 87.77159119 89.74067688 C88.86568961 92.39081611 89.96373237 95.03929362 91.0625 97.6875 C92.16447409 100.34656421 93.26551749 103.00599926 94.36412048 105.66645813 C95.04433351 107.31345418 95.72648989 108.95964943 96.41090393 110.60490417 C96.72140182 111.35621109 97.03189972 112.10751801 97.35180664 112.8815918 C97.62255508 113.53395309 97.89330353 114.18631439 98.17225647 114.85844421 C99.20799413 117.53812686 100.09151491 120.27454473 101 123 C92.42 123 83.84 123 75 123 C69.66332253 110.02127887 64.32860035 97.04427241 59.3125 83.9375 C58.97412109 83.05876221 58.63574219 82.18002441 58.28710938 81.2746582 C57.98224609 80.47116943 57.67738281 79.66768066 57.36328125 78.83984375 C57.09813721 78.14238037 56.83299316 77.44491699 56.55981445 76.72631836 C56 75 56 75 56 73 C45.44 73 34.88 73 24 73 C24 89.5 24 106 24 123 C16.08 123 8.16 123 0 123 C0 82.41 0 41.82 0 0 Z M24 18 C24 29.88 24 41.76 24 54 C29.73375 54.0825 35.4675 54.165 41.375 54.25 C43.16341309 54.28641602 44.95182617 54.32283203 46.79443359 54.36035156 C60.13715958 54.61532006 60.13715958 54.61532006 71.66186523 48.51635742 C75.82892625 43.81906205 76.35638681 39.59515019 76.27734375 33.5703125 C75.70600547 28.27537467 73.3303825 25.11873074 69.25 21.6875 C62.90291657 18.39189899 56.79732778 17.70112615 49.78125 17.8046875 C49.12092773 17.80670166 48.46060547 17.80871582 47.78027344 17.81079102 C45.35344323 17.82112152 42.92671337 17.84904216 40.5 17.875 C35.055 17.91625 29.61 17.9575 24 18 Z " fill="#5CE1E6" transform="translate(633,152)"/>
<path d="M0 0 C8.91 0 17.82 0 27 0 C32.98860538 6.33678012 32.98860538 6.33678012 34.140625 9.58203125 C36.20248354 14.74018417 39.13817991 19.20960017 42.125 23.875 C43.24655623 25.68560399 44.36497517 27.49815459 45.48046875 29.3125 C49.65237836 36.06623973 53.8686406 42.79219991 58.09619141 49.51123047 C64.84472198 60.27385707 71.39269211 71.14513704 78 82 C78.33 54.94 78.66 27.88 79 0 C85.27 0 91.54 0 98 0 C98 40.59 98 81.18 98 123 C90.08 123 82.16 123 74 123 C66.53317299 113.85837067 66.53317299 113.85837067 64.640625 109.54296875 C62.0331432 103.93648841 58.88654057 98.82967687 55.5625 93.625 C54.4643797 91.85476419 53.36933694 90.0826157 52.27734375 88.30859375 C51.7344873 87.42929199 51.19163086 86.54999023 50.63232422 85.64404297 C50.09365723 84.77150879 49.55499023 83.89897461 49 83 C39.71487143 67.96950297 30.36375582 52.98200931 21 38 C20.67 66.05 20.34 94.1 20 123 C13.4 123 6.8 123 0 123 C0 82.41 0 41.82 0 0 Z " fill="#5CE1E6" transform="translate(756,152)"/>
<path d="M0 0 C1.1919397 0.00737183 1.1919397 0.00737183 2.40795898 0.01489258 C15.27939439 0.27140049 25.64859024 5.28708727 35.046875 14.01171875 C44.29930828 23.95639613 48.60069374 36.0062971 48.3984375 49.4765625 C47.37328568 63.2591592 42.12805041 74.5359351 32.08984375 84.015625 C21.6657632 92.26509925 9.42681138 96.1530912 -3.8125 95.3125 C-16.7446309 93.62753181 -28.79055903 87.81684592 -37.1796875 77.65234375 C-45.45653511 65.79150232 -48.11372594 53.51538119 -46.8125 39.3125 C-44.42999398 26.56067801 -37.85282202 16.45495627 -27.8125 8.3125 C-18.94133281 2.90663249 -10.38261796 -0.07589794 0 0 Z " fill="#5DE1E6" transform="translate(149.8125,102.6875)"/>
<path d="M0 0 C1.20970459 0.00523682 2.41940918 0.01047363 3.66577148 0.01586914 C4.97094727 0.0190918 6.27612305 0.02231445 7.62084961 0.02563477 C9.00952213 0.03399138 10.39819401 0.04245634 11.78686523 0.05102539 C13.17944179 0.05603873 14.57202005 0.06060193 15.96459961 0.06469727 C19.38456394 0.07653105 22.80444367 0.09301659 26.22436523 0.11352539 C30.95788745 10.65610888 34.5869174 21.58136478 38.32492065 32.50466919 C40.30022543 38.27681759 42.28717562 44.04494778 44.27514648 49.81274414 C44.68197159 50.99356064 45.08879669 52.17437714 45.50794983 53.39097595 C48.32420325 61.54894649 51.18564112 69.6899286 54.07983398 77.82055664 C54.46799286 78.91143585 54.85615173 80.00231506 55.256073 81.12625122 C57.10760421 86.32504605 58.9651422 91.52162602 60.82885742 96.71606445 C61.50115032 98.59982055 62.17335555 100.48360794 62.84545898 102.36743164 C63.14469772 103.19555862 63.44393646 104.02368561 63.75224304 104.87690735 C65.90501339 110.92522533 67.521784 116.87072752 69.22436523 123.11352539 C60.64436523 123.11352539 52.06436523 123.11352539 43.22436523 123.11352539 C39.92436523 113.87352539 36.62436523 104.63352539 33.22436523 95.11352539 C17.38436523 94.78352539 1.54436523 94.45352539 -14.77563477 94.11352539 C-15.76563477 97.41352539 -16.75563477 100.71352539 -17.77563477 104.11352539 C-18.80340331 107.30676646 -19.84073631 110.49366697 -20.90063477 113.67602539 C-21.16489258 114.48104492 -21.42915039 115.28606445 -21.70141602 116.11547852 C-23.65588919 121.99377982 -23.65588919 121.99377982 -24.77563477 123.11352539 C-26.33736221 123.20038142 -27.90292821 123.22054759 -29.46704102 123.21118164 C-30.4112793 123.20795898 -31.35551758 123.20473633 -32.32836914 123.20141602 C-33.3215918 123.19303711 -34.31481445 123.1846582 -35.33813477 123.17602539 C-36.33522461 123.17151367 -37.33231445 123.16700195 -38.35961914 123.16235352 C-40.83168325 123.15052546 -43.30362994 123.13404388 -45.77563477 123.11352539 C-33.67751345 86.33922376 -21.04523904 49.74077035 -8.15063477 13.23852539 C-7.81127396 12.27406998 -7.81127396 12.27406998 -7.46505737 11.29013062 C-6.85034397 9.54526585 -6.23112152 7.80199145 -5.61157227 6.05883789 C-5.10956299 4.64368896 -5.10956299 4.64368896 -4.59741211 3.19995117 C-3.39169064 0.1387225 -3.39169064 0.1387225 0 0 Z M8.22436523 24.11352539 C5.80118468 31.21526169 3.38035112 38.31779479 0.96118164 45.42089844 C0.1371839 47.83937898 -0.68735969 50.25767363 -1.51245117 52.67578125 C-2.69535097 56.14282789 -3.87631391 59.61052889 -5.05688477 63.07836914 C-5.42873901 64.16689682 -5.80059326 65.2554245 -6.18371582 66.37693787 C-6.5240686 67.37789993 -6.86442139 68.378862 -7.21508789 69.41015625 C-7.51709106 70.29618027 -7.81909424 71.18220428 -8.13024902 72.09507751 C-8.82639379 73.91908848 -8.82639379 73.91908848 -8.77563477 75.11352539 C2.77436523 75.11352539 14.32436523 75.11352539 26.22436523 75.11352539 C24.72184054 68.10920785 24.72184054 68.10920785 22.74389648 61.34399414 C22.4702124 60.52705078 22.19652832 59.71010742 21.91455078 58.8684082 C21.62491455 58.02117187 21.33527832 57.17393555 21.03686523 56.30102539 C20.73369385 55.40609375 20.43052246 54.51116211 20.11816406 53.58911133 C19.48185282 51.71604689 18.84306808 49.84382104 18.2019043 47.97241211 C17.2185949 45.09664962 16.24849978 42.2166426 15.27905273 39.33618164 C14.65744966 37.51169261 14.03508153 35.68746401 13.41186523 33.86352539 C13.122229 33.00009521 12.83259277 32.13666504 12.53417969 31.24707031 C12.26049561 30.45534424 11.98681152 29.66361816 11.70483398 28.84790039 C11.46659912 28.14890625 11.22836426 27.44991211 10.98291016 26.72973633 C10.33217268 24.90922995 10.33217268 24.90922995 8.22436523 24.11352539 Z " fill="#5CE1E6" transform="translate(912.775634765625,151.886474609375)"/>
<path d="M0 0 C9.9 0 19.8 0 30 0 C35.53760734 14.47517659 40.62484053 29.10315994 45.71620941 43.73961639 C46.93277884 47.23585891 48.15128293 50.73142703 49.36962891 54.22705078 C50.84109018 58.44927783 52.31233993 62.67157806 53.78259277 66.89422607 C56.77395939 75.48528516 59.77225323 84.07388555 62.77734375 92.66015625 C63.81836154 95.63639809 64.85927863 98.61267513 65.900177 101.58895874 C66.54820842 103.44103062 67.19670432 105.29294004 67.84567261 107.14468384 C68.7292431 109.66628177 69.61094982 112.18852355 70.4921875 114.7109375 C70.75043808 115.44631241 71.00868866 116.18168732 71.27476501 116.93934631 C73 121.88600136 73 121.88600136 73 123 C64.42 123 55.84 123 47 123 C44.99498638 117.6684865 42.994118 112.33557921 41 107 C40.57460938 105.86433594 40.14921875 104.72867188 39.7109375 103.55859375 C39.35257813 102.59050781 38.99421875 101.62242187 38.625 100.625 C38.30789063 99.77164063 37.99078125 98.91828125 37.6640625 98.0390625 C37 96 37 96 37 94 C21.16 94.33 5.32 94.66 -11 95 C-14.3 104.24 -17.6 113.48 -21 123 C-27.93 123 -34.86 123 -42 123 C-40.06916354 115.67701713 -37.90798281 108.52347826 -35.40234375 101.37890625 C-35.05559601 100.38046188 -34.70884827 99.38201752 -34.35159302 98.35331726 C-33.21694698 95.08852259 -32.07724872 91.82551642 -30.9375 88.5625 C-30.14147385 86.27519448 -29.34582581 83.98775734 -28.55053711 81.70019531 C-27.31030069 78.1333149 -26.06967021 74.56657485 -24.82759094 71.00033569 C-21.84449633 62.43531405 -18.87523261 53.8655934 -15.9140625 45.29296875 C-15.50448807 44.10760025 -15.09491364 42.92223175 -14.67292786 41.70094299 C-13.07901613 37.08774129 -11.48520786 32.4745043 -9.89254761 27.86087036 C-8.79523708 24.68294659 -7.69659335 21.5054866 -6.59765625 18.328125 C-6.27652863 17.39699387 -5.955401 16.46586273 -5.62454224 15.5065155 C-5.17049515 14.19473076 -5.17049515 14.19473076 -4.70727539 12.85644531 C-4.44846085 12.10727844 -4.1896463 11.35811157 -3.92298889 10.58624268 C-2.65808474 7.04194313 -1.32136488 3.52363968 0 0 Z M12 23 C9.57468702 30.08269833 7.15409009 37.16699532 4.73681641 44.25244141 C3.91336695 46.66427381 3.08882543 49.07573364 2.26318359 51.48681641 C1.07885248 54.94597319 -0.10158664 58.40643656 -1.28125 61.8671875 C-1.65310425 62.95055389 -2.0249585 64.03392029 -2.40808105 65.15011597 C-2.74843384 66.1510025 -3.08878662 67.15188904 -3.43945312 68.18310547 C-3.89245789 69.50881058 -3.89245789 69.50881058 -4.35461426 70.86129761 C-5.09629927 72.94679356 -5.09629927 72.94679356 -5 75 C6.55 75 18.1 75 30 75 C28.05480494 67.86761813 26.05493272 60.92131776 23.64453125 53.95703125 C23.33803146 53.06255783 23.03153168 52.16808441 22.71574402 51.24650574 C21.7512153 48.43405262 20.78195225 45.62325926 19.8125 42.8125 C19.15137654 40.88747835 18.49056656 38.962349 17.83007812 37.03710938 C16.22366593 32.35682269 14.61301041 27.67801657 13 23 C12.67 23 12.34 23 12 23 Z " fill="#5CE1E6" transform="translate(546,152)"/>
<path d="M0 0 C1.1919397 0.00737183 1.1919397 0.00737183 2.40795898 0.01489258 C15.27939439 0.27140049 25.64859024 5.28708727 35.046875 14.01171875 C44.38159721 24.04484171 46.95918127 33.80099397 48.1875 47.3125 C16.8375 47.3125 -14.5125 47.3125 -46.8125 47.3125 C-46.8125 33.05643933 -42.20316589 22.96661881 -32.6875 12.625 C-23.74794416 3.98745619 -12.28450859 -0.08980094 0 0 Z " fill="#FEFEFE" transform="translate(149.8125,102.6875)"/>
</svg>
